<svg id="Capa_1" enable-background="new 0 0 512 512" height="512" viewBox="0 0 512 512" width="512" xmlns="http://www.w3.org/2000/svg"><g><g><path clip-rule="evenodd" d="m504.5 162.34c0 3.005-2.466 5.471-5.471 5.471h-78.095c-5.868-13.465-13.039-26.25-21.345-38.155l47.877-12.643 57.033 12.643v32.684z" fill="#375e7d" fill-rule="evenodd"/></g><g><path clip-rule="evenodd" d="m504.5 91.501-60.35 15.081-88.356-15.081c-17.49-15.676-37.502-28.631-59.358-38.127h202.593c3.005 0 5.471 2.438 5.471 5.471z" fill="#375e7d" fill-rule="evenodd"/></g><g><path clip-rule="evenodd" d="m504.5 91.501h-51.336c-12.586-15.846-30.784-29.056-52.611-38.127h98.476c3.005 0 5.471 2.438 5.471 5.471z" fill="#2b4d66" fill-rule="evenodd"/></g><g><path clip-rule="evenodd" d="m470.938 129.656h33.562v32.684c0 3.005-2.466 5.471-5.471 5.471h-30.926c2.636-7.881 4.025-16.13 4.025-24.605 0-4.592-.397-9.099-1.19-13.55z" fill="#2b4d66" fill-rule="evenodd"/></g><g><path clip-rule="evenodd" d="m504.5 129.656h-114.917c-9.78-13.975-21.118-26.788-33.789-38.155h148.706z" fill="#eff6ff" fill-rule="evenodd"/></g><g><path clip-rule="evenodd" d="m453.164 91.501h51.336v38.155h-33.562c-2.466-13.748-8.646-26.646-17.774-38.155z" fill="#d9eeff" fill-rule="evenodd"/></g><g><path clip-rule="evenodd" d="m449.253 256c0 121.978-98.901 220.882-220.876 220.882-122.004 0-220.877-98.904-220.877-220.882 0-122.007 98.873-220.882 220.876-220.882 31.295 0 61.087 6.492 88.044 18.256 21.855 9.496 41.868 22.451 59.386 38.127 12.671 11.367 24.01 24.18 33.761 38.155 8.334 11.906 15.506 24.691 21.373 38.155 11.793 27.016 18.313 56.837 18.313 88.189zm-153.554 0c0 28.007 19.559 51.45 45.751 57.432 4.224.964 8.646 1.474 13.181 1.474 32.542 0 41.726-26.363 41.726-58.906s-9.184-58.934-41.726-58.934c-4.535 0-8.957.51-13.181 1.502-26.192 5.982-45.751 29.425-45.751 57.432zm21.232-109.903c0 10.687 8.674 19.361 19.389 19.361 10.687 0 19.361-8.674 19.361-19.361s-8.674-19.361-19.361-19.361c-10.715 0-19.389 8.675-19.389 19.361zm19.389 200.416c-10.715 0-19.389 8.674-19.389 19.39 0 10.687 8.674 19.361 19.389 19.361 10.687 0 19.361-8.674 19.361-19.361 0-10.716-8.674-19.39-19.361-19.39zm-221.018-33.081c26.192-5.981 45.723-29.424 45.723-57.432 0-28.007-19.531-51.45-45.723-57.46-4.252-.964-8.646-1.474-13.181-1.474-32.542 0-41.754 26.391-41.754 58.934s9.213 58.906 41.754 58.906c4.535 0 8.929-.511 13.181-1.474zm55.644-170.509c5.981 26.193 29.424 45.724 57.43 45.724s51.449-19.531 57.43-45.724c.964-4.252 1.474-8.646 1.474-13.181 0-32.543-26.362-41.756-58.904-41.756s-58.932 9.213-58.932 41.756c0 4.535.51 8.928 1.502 13.181zm114.86 226.154c-5.981-26.193-29.424-45.753-57.43-45.753s-51.449 19.56-57.458 45.753c-.964 4.224-1.474 8.646-1.474 13.182 0 32.543 26.391 41.727 58.932 41.727s58.904-9.185 58.904-41.727c0-4.536-.51-8.958-1.474-13.182zm-88.299-113.077c0 17.037 13.833 30.842 30.869 30.842s30.841-13.805 30.841-30.842-13.805-30.87-30.841-30.87-30.869 13.833-30.869 30.87zm-77.074 129.264c10.687 0 19.361-8.674 19.361-19.361 0-10.715-8.674-19.39-19.361-19.39s-19.361 8.674-19.361 19.39c0 10.686 8.674 19.361 19.361 19.361zm19.36-239.167c0-10.687-8.674-19.361-19.361-19.361s-19.361 8.674-19.361 19.361 8.674 19.361 19.361 19.361 19.361-8.674 19.361-19.361z" fill="#eff6ff" fill-rule="evenodd"/></g><g><path clip-rule="evenodd" d="m115.302 198.568c26.192 5.981 45.723 29.425 45.723 57.432s-19.531 51.45-45.723 57.432c-8.787-17.235-13.72-36.766-13.72-57.432 0-20.694 4.932-40.196 13.72-57.432z" fill="#375e7d" fill-rule="evenodd"/></g><g><path clip-rule="evenodd" d="m228.376 323.325c28.006 0 51.449 19.56 57.43 45.753-17.235 8.759-36.765 13.72-57.43 13.72-20.693 0-40.195-4.961-57.458-13.72 6.009-26.193 29.452-45.753 57.458-45.753z" fill="#375e7d" fill-rule="evenodd"/></g><g><path clip-rule="evenodd" d="m341.451 198.568c8.759 17.235 13.72 36.738 13.72 57.432 0 20.665-4.961 40.197-13.72 57.432-26.192-5.981-45.751-29.424-45.751-57.432-.001-28.007 19.558-51.45 45.751-57.432z" fill="#375e7d" fill-rule="evenodd"/></g><g><path clip-rule="evenodd" d="m228.376 129.202c20.665 0 40.195 4.932 57.43 13.72-5.981 26.193-29.424 45.724-57.43 45.724s-51.449-19.531-57.43-45.724c17.235-8.787 36.737-13.72 57.43-13.72z" fill="#375e7d" fill-rule="evenodd"/></g><g><path clip-rule="evenodd" d="m277.841 471.326c53.773-35.151 92.693-95.247 103.748-165.945 11.055-10.517 14.769-28.716 14.769-49.381 0-22.82-4.507-42.606-18.425-52.386-5.017-21.544-12.643-41.897-22.507-60.635-.737-4.592-3.09-8.646-6.463-11.537-26.759-44.874-66.671-79.202-113.67-96.239 28.772.907 56.155 7.285 81.128 18.171 21.855 9.496 41.868 22.451 59.386 38.127 12.671 11.367 24.01 24.18 33.761 38.155 8.334 11.906 15.506 24.691 21.373 38.155 11.792 27.015 18.312 56.836 18.312 88.188 0 104.971-73.248 192.848-171.412 215.327z" fill="#d9eeff" fill-rule="evenodd"/></g><g><path clip-rule="evenodd" d="m285.806 142.923c-5.981 26.193-29.424 45.724-57.43 45.724-.397 0-.794 0-1.191 0-4.394-21.119-10.8-40.622-18.794-57.885 6.52-1.02 13.181-1.559 19.984-1.559 20.666-.001 40.197 4.932 57.431 13.72z" fill="#2b4d66" fill-rule="evenodd"/></g><g><path clip-rule="evenodd" d="m228.376 323.325c28.006 0 51.449 19.56 57.43 45.753-17.235 8.759-36.765 13.72-57.43 13.72-6.69 0-13.266-.51-19.673-1.531 7.965-17.263 14.287-36.795 18.652-57.914.341-.028.681-.028 1.021-.028z" fill="#2b4d66" fill-rule="evenodd"/></g><g><path clip-rule="evenodd" d="m341.451 313.432c-26.192-5.981-45.751-29.424-45.751-57.432 0-28.007 19.559-51.45 45.751-57.432 8.759 17.235 13.72 36.738 13.72 57.432-.001 20.665-4.961 40.197-13.72 57.432z" fill="#2b4d66" fill-rule="evenodd"/></g><g><path d="m499.029 45.874h-40.366c-4.142 0-7.5 3.358-7.5 7.5s3.358 7.5 7.5 7.5h38.337v23.126h-118.38c-9.883-8.658-20.394-16.381-31.427-23.127h80.347c4.142 0 7.5-3.358 7.5-7.5s-3.358-7.5-7.5-7.5h-109.419c-27.995-11.962-58.384-18.256-89.744-18.256-61.01 0-118.363 23.754-161.493 66.885-43.131 43.133-66.884 100.487-66.884 161.498 0 69.29 30.915 134.028 84.819 177.617 3.221 2.604 7.944 2.105 10.548-1.116s2.104-7.943-1.116-10.548c-50.365-40.727-79.251-101.215-79.251-165.953 0-117.66 95.72-213.382 213.376-213.382s213.376 95.723 213.376 213.382-95.72 213.382-213.376 213.382c-37.382 0-74.168-9.809-106.383-28.367-3.588-2.066-8.175-.834-10.243 2.755-2.067 3.589-.834 8.175 2.755 10.243 34.488 19.867 73.864 30.369 113.87 30.369 60.996 0 118.345-23.757 161.482-66.896s66.895-100.488 66.895-161.486c0-28.009-5.021-55.242-14.612-80.688h56.889c7.152 0 12.971-5.819 12.971-12.971v-103.497c0-7.152-5.819-12.97-12.971-12.97zm-2.029 76.282h-83.531c-5.861-8.069-12.274-15.807-19.24-23.156h102.771zm-61.142 38.156c-3.665-7.936-7.794-15.666-12.375-23.155h73.517v23.155z"/><path d="m266.717 256c0-21.157-17.2-38.37-38.341-38.37-21.157 0-38.37 17.213-38.37 38.37 0 21.142 17.212 38.342 38.37 38.342 21.142 0 38.341-17.2 38.341-38.342zm-61.71 0c0-12.886 10.483-23.37 23.37-23.37 12.87 0 23.341 10.484 23.341 23.37 0 12.871-10.471 23.342-23.341 23.342-12.887 0-23.37-10.471-23.37-23.342z"/><path d="m120.433 392.764c14.811 0 26.861-12.05 26.861-26.861 0-14.827-12.05-26.889-26.861-26.889s-26.861 12.062-26.861 26.889c0 14.811 12.05 26.861 26.861 26.861zm0-38.751c6.54 0 11.861 5.333 11.861 11.889 0 6.541-5.321 11.861-11.861 11.861s-11.861-5.321-11.861-11.861c0-6.555 5.321-11.889 11.861-11.889z"/><path d="m309.431 365.902c0 14.812 12.062 26.861 26.889 26.861 14.811 0 26.861-12.05 26.861-26.861 0-14.827-12.05-26.889-26.861-26.889-14.827 0-26.889 12.063-26.889 26.889zm38.75 0c0 6.541-5.321 11.861-11.861 11.861-6.556 0-11.889-5.321-11.889-11.861 0-6.556 5.333-11.889 11.889-11.889 6.54 0 11.861 5.334 11.861 11.889z"/><path d="m147.293 146.098c0-14.812-12.05-26.861-26.861-26.861s-26.861 12.05-26.861 26.861 12.05 26.861 26.861 26.861 26.861-12.05 26.861-26.861zm-38.721 0c0-6.541 5.321-11.861 11.861-11.861s11.861 5.321 11.861 11.861-5.321 11.861-11.861 11.861-11.861-5.321-11.861-11.861z"/><path d="m363.181 146.098c0-14.812-12.05-26.861-26.861-26.861-14.827 0-26.889 12.05-26.889 26.861s12.062 26.861 26.889 26.861c14.811-.001 26.861-12.05 26.861-26.861zm-38.75 0c0-6.541 5.333-11.861 11.889-11.861 6.54 0 11.861 5.321 11.861 11.861s-5.321 11.861-11.861 11.861c-6.556-.001-11.889-5.321-11.889-11.861z"/><path d="m161.944 382.259c0 17.933 7.039 31.225 20.92 39.508 10.961 6.541 25.848 9.72 45.513 9.72 19.662 0 34.545-3.18 45.5-9.721 13.871-8.282 20.904-21.574 20.904-39.507 0-36.632-29.789-66.434-66.404-66.434-36.631 0-66.433 29.802-66.433 66.434zm66.432 34.227c-46.101 0-51.433-19.534-51.433-34.228 0-.719.025-1.432.054-2.144 16.276 6.753 33.51 10.183 51.378 10.183 17.595 0 35.148-3.511 51.349-10.194.03.716.055 1.433.055 2.156.001 14.693-5.327 34.227-51.403 34.227zm0-85.661c22.313 0 41.343 14.303 48.434 34.224-15.255 6.797-31.517 10.248-48.434 10.248-16.911 0-33.181-3.451-48.461-10.251 7.097-19.92 26.137-34.221 48.461-34.221z"/><path d="m62.602 210.483c-6.551 10.967-9.735 25.855-9.735 45.517 0 19.659 3.185 34.543 9.736 45.504 8.29 13.869 21.586 20.901 39.518 20.901 36.615 0 66.404-29.79 66.404-66.406 0-36.632-29.789-66.434-66.404-66.434-17.933.001-31.228 7.039-39.519 20.918zm90.923 45.517c0 22.313-14.294 41.343-34.202 48.435-6.793-15.211-10.241-31.473-10.241-48.435 0-16.971 3.452-33.241 10.251-48.458 19.903 7.099 34.192 26.136 34.192 48.458zm-51.404-51.434c.718 0 1.43.025 2.141.054-6.751 16.223-10.18 33.458-10.18 51.38 0 17.634 3.508 35.187 10.185 51.351-.713.03-1.427.054-2.146.054-14.705 0-34.254-5.329-34.254-51.406-.001-46.101 19.549-51.433 34.254-51.433z"/><path d="m273.879 90.222c-10.96-6.552-25.845-9.737-45.503-9.737-19.661 0-34.549 3.185-45.516 9.736-13.879 8.291-20.917 21.587-20.917 39.52 0 36.616 29.802 66.406 66.433 66.406 36.615 0 66.404-29.79 66.404-66.406 0-17.932-7.032-31.229-20.901-39.519zm-45.503 5.263c46.075 0 51.404 19.55 51.404 34.256 0 .72-.025 1.433-.054 2.146-16.163-6.676-33.715-10.184-51.349-10.184-17.923 0-35.157 3.428-51.378 10.179-.029-.711-.054-1.423-.054-2.141-.001-14.705 5.33-34.256 51.431-34.256zm0 85.662c-22.321 0-41.358-14.289-48.457-34.193 15.216-6.799 31.486-10.251 48.457-10.251 16.963 0 33.224 3.448 48.434 10.24-7.092 19.91-26.121 34.204-48.434 34.204z"/><path d="m288.199 256c0 36.616 29.802 66.406 66.433 66.406 17.932 0 31.224-7.033 39.506-20.905 6.541-10.955 9.72-25.838 9.72-45.501 0-19.665-3.179-34.552-9.719-45.513-8.283-13.882-21.575-20.921-39.507-20.921-36.631 0-66.433 29.802-66.433 66.434zm100.659 0c0 46.077-19.533 51.406-34.226 51.406-.723 0-1.44-.025-2.156-.055 6.683-16.202 10.194-33.756 10.194-51.351 0-17.883-3.432-35.118-10.189-51.38.714-.03 1.43-.055 2.151-.055 14.693.001 34.226 5.333 34.226 51.435zm-51.446-48.459c6.804 15.262 10.259 31.533 10.259 48.459 0 16.918-3.451 33.18-10.248 48.436-19.92-7.092-34.223-26.122-34.223-48.436-.001-22.322 14.297-41.36 34.212-48.459z"/></g></g></svg>