<svg width="250" height="105" viewBox="0 0 320 105" fill="none" xmlns="http://www.w3.org/2000/svg">
<path d="M0 0H267.5C296.495 0 320 23.5051 320 52.5V52.5C320 81.4949 296.495 105 267.5 105H0V0Z" fill="#F5C518"/>
<path d="M51.3887 32.1641L61.4375 58.8652L71.4624 32.1641H79.2861V67H73.2568V55.5156L73.855 40.1553L63.5669 67H59.2363L48.9722 40.1792L49.5703 55.5156V67H43.541V32.1641H51.3887ZM84.813 53.8169C84.813 51.2808 85.3154 48.9998 86.3203 46.9741C87.3252 44.9325 88.7368 43.3693 90.5552 42.2847C92.3735 41.1841 94.4631 40.6338 96.8237 40.6338C100.317 40.6338 103.148 41.7583 105.317 44.0073C107.503 46.2563 108.683 49.2391 108.858 52.9556L108.882 54.3193C108.882 56.8714 108.388 59.1523 107.399 61.1621C106.426 63.1719 105.022 64.7271 103.188 65.8276C101.37 66.9282 99.2642 67.4785 96.8716 67.4785C93.2189 67.4785 90.292 66.2663 88.0908 63.8418C85.9056 61.4014 84.813 58.1554 84.813 54.104V53.8169ZM90.627 54.3193C90.627 56.9831 91.1772 59.0726 92.2778 60.5879C93.3784 62.0872 94.9097 62.8369 96.8716 62.8369C98.8335 62.8369 100.357 62.0713 101.441 60.54C102.542 59.0088 103.092 56.7677 103.092 53.8169C103.092 51.201 102.526 49.1274 101.394 47.5962C100.277 46.0649 98.7537 45.2993 96.8237 45.2993C94.9256 45.2993 93.4183 46.057 92.3018 47.5723C91.1852 49.0716 90.627 51.3206 90.627 54.3193ZM122.544 59.6309L128.023 41.1123H134.028L125.056 67H120.008L110.964 41.1123H116.993L122.544 59.6309ZM143.862 67H138.048V41.1123H143.862V67ZM137.689 34.3892C137.689 33.4959 137.968 32.7542 138.526 32.1641C139.101 31.5739 139.914 31.2788 140.967 31.2788C142.02 31.2788 142.833 31.5739 143.407 32.1641C143.981 32.7542 144.269 33.4959 144.269 34.3892C144.269 35.2664 143.981 36.0002 143.407 36.5903C142.833 37.1646 142.02 37.4517 140.967 37.4517C139.914 37.4517 139.101 37.1646 138.526 36.5903C137.968 36.0002 137.689 35.2664 137.689 34.3892ZM161.615 67.4785C157.93 67.4785 154.939 66.3221 152.643 64.0093C150.362 61.6805 149.221 58.5861 149.221 54.7261V54.0083C149.221 51.4243 149.716 49.1195 150.705 47.0938C151.709 45.0521 153.113 43.465 154.916 42.3325C156.718 41.2 158.728 40.6338 160.945 40.6338C164.47 40.6338 167.189 41.7583 169.104 44.0073C171.034 46.2563 171.999 49.4385 171.999 53.5537V55.8984H155.083C155.258 58.0358 155.968 59.7266 157.212 60.9707C158.472 62.2148 160.052 62.8369 161.95 62.8369C164.613 62.8369 166.783 61.7603 168.458 59.6069L171.592 62.5977C170.555 64.1449 169.167 65.3491 167.429 66.2104C165.706 67.0558 163.768 67.4785 161.615 67.4785ZM160.921 45.2993C159.326 45.2993 158.034 45.8576 157.045 46.9741C156.072 48.0907 155.45 49.6458 155.179 51.6396H166.256V51.209C166.129 49.263 165.61 47.7956 164.701 46.8066C163.792 45.8018 162.532 45.2993 160.921 45.2993ZM204.753 67H198.724V51.52H183.148V67H177.095V32.1641H183.148V46.6631H198.724V32.1641H204.753V67ZM227.052 64.4639C225.345 66.4736 222.921 67.4785 219.778 67.4785C216.971 67.4785 214.842 66.6571 213.39 65.0142C211.955 63.3713 211.237 60.9946 211.237 57.8843V41.1123H217.051V57.8125C217.051 61.0983 218.415 62.7412 221.142 62.7412C223.965 62.7412 225.871 61.7284 226.86 59.7026V41.1123H232.674V67H227.195L227.052 64.4639ZM261.313 54.3193C261.313 58.3389 260.412 61.5369 258.61 63.9136C256.823 66.2902 254.359 67.4785 251.217 67.4785C248.186 67.4785 245.826 66.3859 244.135 64.2007L243.848 67H238.584V30.25H244.398V43.6006C246.073 41.6227 248.33 40.6338 251.169 40.6338C254.327 40.6338 256.807 41.8062 258.61 44.1509C260.412 46.4956 261.313 49.7734 261.313 53.9844V54.3193ZM255.5 53.8169C255.5 51.0096 255.005 48.9041 254.016 47.5005C253.027 46.0968 251.592 45.395 249.709 45.395C247.189 45.395 245.419 46.4956 244.398 48.6968V59.3677C245.435 61.6167 247.221 62.7412 249.757 62.7412C251.576 62.7412 252.979 62.0633 253.968 60.7075C254.957 59.3517 255.468 57.3021 255.5 54.5586V53.8169Z" fill="black"/>
</svg>
